# xmcd CD database file
#
# Track frame offsets:
#	150
#	13597
#	26832
#	40875
#	53782
#	73407
#	90532
#	103675
#	118547
#	132700
#
# Disc length: 1983 seconds
#
# Revision: 3
# Processed by: cddbd v1.5.2PL0 Copyright (c) Steve Scherf et al.
# Submitted via: CDex 1.51
#
DISCID=8d07bd0a
DTITLE=Brooks and Dunn - Band New Man
DYEAR=1991
DGENRE=Country
TTITLE0=Brand New Man
TTITLE1=My Next Broken Heart
TTITLE2=Cool Drink Of Water
TTITLE3=Cheating On The Blues
TTITLE4=Neon Moon
TTITLE5=Lost And Found
TTITLE6=I've Got A Lot To Learn
TTITLE7=Boot Scootin' Boogie
TTITLE8=I'm No Good
TTITLE9=Still In Love With You
EXTD=YEAR: 1991
EXTT0=
EXTT1=
EXTT2=
EXTT3=
EXTT4=
EXTT5=
EXTT6=
EXTT7=
EXTT8=
EXTT9=
PLAYORDER=
